<svg width="1440" height="1024" viewBox="0 0 1440 1024" fill="none" xmlns="http://www.w3.org/2000/svg">
<rect x="34.5" y="40.5" width="1358" height="929" stroke="#8EAF41"/>
<path d="M-82.8863 5.79456C100.253 53.5786 5.67454 -152.718 168.186 -154.103C330.698 -155.487 504.222 -163.409 505.62 0.780656C507.019 164.97 376.412 299.195 213.9 300.579C51.3883 301.964 -285.564 -47.0872 -82.8863 5.79456Z" fill="#C4DB8E"/>
<path d="M-127.46 12.2418C55.679 60.0259 -38.8997 -146.271 123.612 -147.655C286.124 -149.04 459.647 -156.962 461.046 7.22792C462.445 171.418 331.837 305.642 169.326 307.027C6.81408 308.411 -330.138 -40.64 -127.46 12.2418Z" fill="#8EAF41"/>
<path d="M1597.07 731.524C1469.42 630.028 1469.35 852.426 1340.17 803.343C1210.99 754.261 1070.71 707.882 1129.27 553.779C1187.82 399.676 1340.01 314.54 1469.19 363.623C1598.37 412.706 1738.33 843.848 1597.07 731.524Z" fill="#C4DB8E"/>
<path d="M1634.7 739.308C1507.06 637.812 1506.98 860.21 1377.8 811.127C1248.62 762.044 1108.35 715.666 1166.9 561.563C1225.46 407.46 1377.64 322.324 1506.82 371.407C1636 420.49 1775.97 851.631 1634.7 739.308Z" fill="#8EAF41"/>
<path d="M-396.886 755.794C-213.747 803.578 -308.325 597.281 -145.814 595.897C16.6978 594.512 190.222 586.59 191.62 750.78C193.019 914.97 62.4116 1049.19 -100.1 1050.58C-262.612 1051.96 -599.564 702.912 -396.886 755.794Z" fill="#C4DB8E"/>
<path d="M-441.46 762.241C-258.321 810.025 -352.9 603.729 -190.388 602.344C-27.8764 600.959 145.647 593.037 147.046 757.227C148.445 921.417 17.8374 1055.64 -144.674 1057.03C-307.186 1058.41 -644.138 709.359 -441.46 762.241Z" fill="#8EAF41"/>
</svg>
